<?xml version="1.0" encoding="utf-8"?>
<!-- Generator: Adobe Illustrator 15.0.0, SVG Export Plug-In . SVG Version: 6.00 Build 0)  -->
<!DOCTYPE svg PUBLIC "-//W3C//DTD SVG 1.1//EN" "http://www.w3.org/Graphics/SVG/1.1/DTD/svg11.dtd">
<svg version="1.1" xmlns="http://www.w3.org/2000/svg" xmlns:xlink="http://www.w3.org/1999/xlink" x="0px" y="0px"
	 width="500.24px" height="150.236px" viewBox="0 0 500.24 150.236" enable-background="new 0 0 500.24 150.236"
	 xml:space="preserve">
<g id="Layer_1" display="none">
	<text transform="matrix(1 0 0 1 0.5186 124.2578)" display="inline"><tspan x="0" y="0" fill="#FFFFFF" font-family="'Montserrat-Bold'" font-size="103.9147">Air</tspan><tspan x="150.467" y="0" font-family="'Montserrat-Bold'" font-size="103.9147"> Travel</tspan></text>
	<text transform="matrix(1 0 0 1 181.5176 40.6821)" display="inline" font-family="'Montserrat-Regular'" font-size="42.4142">A Guide to</text>
</g>
<g id="Layer_2">
	<g>
		<path fill="#FFFFFF" d="M61.205,124.258l-6.754-15.691H24.003l-6.754,15.691h-17.25l31.382-72.636h15.691l31.382,72.636H61.205z
			 M39.279,73.236l-9.145,21.095h18.185L39.279,73.236z"/>
		<path fill="#FFFFFF" d="M86.611,61.233c-1.767-1.767-2.65-3.931-2.65-6.495c0-2.562,0.883-4.728,2.65-6.495s3.931-2.65,6.495-2.65
			c2.562,0,4.729,0.883,6.495,2.65c1.767,1.767,2.65,3.933,2.65,6.495c0,2.564-0.883,4.728-2.65,6.495
			c-1.766,1.767-3.932,2.65-6.495,2.65C90.542,63.883,88.378,63,86.611,61.233z M100.9,124.258H85.312V68.352H100.9V124.258z"/>
		<path fill="#FFFFFF" d="M145.062,82.068c-4.642,0-8.105,1.646-10.391,4.936c-2.286,3.291-3.429,7.638-3.429,13.042v24.212h-15.587
			V68.352h15.587v7.378c2.008-2.286,4.52-4.225,7.534-5.819c3.014-1.593,6.079-2.424,9.196-2.494l0.104,14.652H145.062z"/>
		<path fill="#424446" d="M218.113,65.65v58.608h-16.21V65.65h-20.575V51.622h57.361V65.65H218.113z"/>
		<path fill="#424446" d="M278.382,82.068c-4.642,0-8.105,1.646-10.391,4.936c-2.286,3.291-3.429,7.638-3.429,13.042v24.212h-15.587V68.352h15.587
			v7.378c2.008-2.286,4.52-4.225,7.534-5.819c3.014-1.593,6.079-2.424,9.196-2.494l0.104,14.652H278.382z"/>
		<path fill="#424446" d="M338.654,124.258h-14.652v-6.754c-4.019,5.058-8.988,7.586-14.912,7.586s-10.895-1.715-14.912-5.144
			c-4.019-3.429-6.027-8.001-6.027-13.717s2.079-9.992,6.235-12.833c4.157-2.84,9.836-4.26,17.042-4.26h11.639v-0.312
			c0-5.957-3.153-8.937-9.456-8.937c-2.702,0-5.56,0.538-8.573,1.611c-3.014,1.075-5.56,2.408-7.638,4l-6.962-10.08
			c7.342-5.334,15.726-8.001,25.147-8.001c6.789,0,12.33,1.698,16.626,5.092c4.294,3.395,6.443,8.765,6.443,16.107V124.258z
			 M322.962,102.955v-2.702h-9.768c-6.235,0-9.352,1.94-9.352,5.819c0,2.01,0.744,3.551,2.234,4.624
			c1.489,1.075,3.619,1.611,6.391,1.611c2.77,0,5.212-0.848,7.326-2.546C321.905,108.065,322.962,105.797,322.962,102.955z"/>
		<path fill="#424446" d="M367.231,124.258l-22.134-56.01h16.211l13.925,35.228l13.925-35.228h16.211l-22.135,56.01H367.231z"/>
		<path fill="#424446" d="M461.481,116.152c-6.305,5.959-13.701,8.937-22.186,8.937c-8.487,0-15.502-2.614-21.043-7.846
			c-5.543-5.23-8.312-12.244-8.312-21.043c0-8.797,2.821-15.795,8.469-20.991c5.645-5.196,12.313-7.793,20.003-7.793
			c7.69,0,14.219,2.322,19.589,6.962c5.367,4.642,8.053,11.015,8.053,19.12v8.313h-40.734c0.483,3.049,2.078,5.543,4.779,7.482
			c2.702,1.94,5.75,2.91,9.145,2.91c5.473,0,9.977-1.834,13.51-5.507L461.481,116.152z M446.518,83.003
			c-2.147-1.8-4.764-2.702-7.845-2.702c-3.084,0-5.908,0.936-8.47,2.806c-2.563,1.871-4.053,4.4-4.468,7.586h24.523
			C449.911,87.368,448.664,84.806,446.518,83.003z"/>
		<path fill="#424446" d="M492.863,124.258h-15.587V47.153h15.587V124.258z"/>
	</g>
	<g>
		<path fill="#FF6938" d="M189.831,33.938l-2.969,6.744h-5.344l13.063-29.647h5.344l13.063,29.647h-5.344l-2.969-6.744H189.831z M202.64,29.315
			L197.253,17.1l-5.387,12.215H202.64z"/>
		<path fill="#FF6938" d="M249.252,26.261h5.005v10.137c-2.799,3.082-6.801,4.623-12.003,4.623c-4.383,0-8.052-1.442-11.007-4.326
			c-2.955-2.884-4.432-6.532-4.432-10.943s1.506-8.086,4.517-11.028c3.011-2.94,6.652-4.411,10.922-4.411
			c4.269,0,7.818,1.245,10.646,3.732l-2.672,3.817c-1.16-0.989-2.326-1.675-3.499-2.057c-1.174-0.382-2.539-0.573-4.093-0.573
			c-2.998,0-5.514,0.969-7.55,2.906c-2.036,1.937-3.054,4.482-3.054,7.634c0,3.153,0.99,5.684,2.969,7.592
			c1.979,1.909,4.375,2.863,7.189,2.863c2.813,0,5.167-0.607,7.062-1.824V26.261z"/>
		<path fill="#FF6938" d="M275.93,30.333V18.118h4.75v22.564h-4.75v-4.114c-0.763,1.386-1.817,2.475-3.16,3.266
			c-1.343,0.792-2.792,1.188-4.347,1.188c-2.545,0-4.602-0.777-6.171-2.333c-1.569-1.555-2.354-3.803-2.354-6.744V18.118h4.75
			v12.385c0,4.156,1.724,6.235,5.174,6.235c1.64,0,3.068-0.544,4.284-1.633C275.322,34.017,275.93,32.426,275.93,30.333z"/>
		<path fill="#FF6938" d="M287.848,13.622c-0.594-0.594-0.891-1.3-0.891-2.121c0-0.82,0.297-1.527,0.891-2.121s1.3-0.891,2.121-0.891
			c0.82,0,1.527,0.297,2.121,0.891c0.594,0.594,0.891,1.301,0.891,2.121c0,0.821-0.297,1.527-0.891,2.121
			c-0.594,0.594-1.301,0.891-2.121,0.891C289.148,14.513,288.442,14.216,287.848,13.622z M292.302,40.682h-4.75V18.118h4.75V40.682z
			"/>
		<path fill="#FF6938" d="M300.911,37.798c-2.121-2.148-3.181-4.976-3.181-8.483c0-3.505,1.088-6.305,3.266-8.398
			c2.177-2.092,4.771-3.139,7.783-3.139c3.011,0,5.436,1.272,7.274,3.817V9.211h4.75v31.471h-4.75v-3.393
			c-1.753,2.488-4.312,3.732-7.677,3.732C305.52,41.021,303.032,39.947,300.911,37.798z M302.48,29.506
			c0,2.163,0.693,3.923,2.079,5.281c1.385,1.357,3.011,2.036,4.877,2.036s3.45-0.685,4.75-2.057c1.3-1.371,1.951-3.131,1.951-5.28
			c0-2.148-0.651-3.945-1.951-5.387c-1.301-1.442-2.899-2.163-4.793-2.163c-1.895,0-3.52,0.721-4.877,2.163
			S302.48,27.343,302.48,29.506z"/>
		<path fill="#FF6938" d="M348.669,31.478h-17.687c0.113,1.641,0.862,2.962,2.248,3.966c1.385,1.004,2.969,1.506,4.75,1.506
			c2.827,0,4.977-0.891,6.447-2.672l2.715,2.969c-2.432,2.517-5.599,3.775-9.501,3.775c-3.167,0-5.86-1.053-8.08-3.16
			s-3.329-4.934-3.329-8.483c0-3.548,1.13-6.369,3.393-8.462c2.262-2.092,4.927-3.139,7.995-3.139c3.067,0,5.676,0.927,7.825,2.778
			c2.148,1.852,3.224,4.404,3.224,7.656V31.478z M330.982,27.746h12.937c0-1.894-0.594-3.351-1.781-4.369
			c-1.188-1.018-2.651-1.527-4.39-1.527c-1.739,0-3.302,0.53-4.687,1.591C331.675,24.501,330.982,25.937,330.982,27.746z"/>
		<path fill="#FF6938" d="M371.36,21.935v11.452c0,1.075,0.282,1.93,0.849,2.566c0.565,0.636,1.357,0.954,2.375,0.954s1.994-0.494,2.927-1.484
			l1.951,3.351c-1.668,1.499-3.514,2.248-5.535,2.248c-2.022,0-3.747-0.7-5.175-2.1c-1.428-1.399-2.142-3.287-2.142-5.662V21.935
			h-2.841v-3.817h2.841v-7.083h4.75v7.083h5.938v3.817H371.36z"/>
		<path fill="#FF6938" d="M401.941,37.649c-2.263,2.248-5.09,3.372-8.483,3.372c-3.393,0-6.221-1.124-8.482-3.372
			c-2.263-2.248-3.394-4.998-3.394-8.25c0-3.251,1.13-6.001,3.394-8.25c2.262-2.248,5.09-3.372,8.482-3.372
			c3.394,0,6.221,1.124,8.483,3.372c2.262,2.248,3.393,4.998,3.393,8.25C405.334,32.652,404.203,35.401,401.941,37.649z
			 M388.348,34.723c1.342,1.372,3.046,2.057,5.11,2.057c2.063,0,3.768-0.685,5.111-2.057c1.343-1.372,2.015-3.146,2.015-5.323
			c0-2.177-0.672-3.951-2.015-5.323c-1.344-1.372-3.048-2.057-5.111-2.057c-2.064,0-3.769,0.686-5.11,2.057
			c-1.344,1.372-2.015,3.146-2.015,5.323C386.333,31.578,387.004,33.352,388.348,34.723z"/>
	</g>
</g>
</svg>
