<svg id="Layer_1" data-name="Layer 1" xmlns="http://www.w3.org/2000/svg" x="0px" y="0px" width="177.86px" height="195.84px" viewBox="0 0 177.86 195.84">
  <title>air-travel-title-small</title>
  <g>
    <path d="M9.94,19.83L7.62,25.09H3.46L13.64,2H17.8L28,25.11H23.82l-2.31-5.26H9.94v0Zm10-3.6L15.72,6.71l-4.2,9.52h8.42Z" transform="translate(0 -0.01)" fill="#ff6938"/>
    <path d="M56.24,13.85h3.91v7.9q-3.27,3.6-9.35,3.6A11.8,11.8,0,0,1,42.21,22a11.41,11.41,0,0,1-3.45-8.53,11.52,11.52,0,0,1,3.52-8.59,11.74,11.74,0,0,1,8.51-3.44,12.1,12.1,0,0,1,8.3,2.91L57,7.36a8.11,8.11,0,0,0-2.73-1.6,10.31,10.31,0,0,0-3.19-.45,8.21,8.21,0,0,0-5.94,2.21,7.84,7.84,0,0,0-2.38,5.95,7.77,7.77,0,0,0,7.38,8.14h0.54a10,10,0,0,0,5.5-1.42V13.85h0Z" transform="translate(0 -0.01)" fill="#ff6938"/>
    <path d="M77,17V7.5h3.7V25.09H77V21.88a6.9,6.9,0,0,1-10.66,1.65,7.07,7.07,0,0,1-1.83-5.25V7.5h3.7v9.65q0,4.86,4,4.86a4.85,4.85,0,0,0,3.34-1.27A4.73,4.73,0,0,0,77,17Z" transform="translate(0 -0.01)" fill="#ff6938"/>
    <path d="M86.31,4a2.32,2.32,0,0,1,0-3.28l0,0a2.31,2.31,0,0,1,3.27,0l0,0a2.32,2.32,0,0,1,0,3.28l0,0a2.31,2.31,0,0,1-3.27,0ZM89.78,25.1h-3.7V7.5h3.7V25.09h0Z" transform="translate(0 -0.01)" fill="#ff6938"/>
    <path d="M96.49,22.84A9,9,0,0,1,94,16.23a8.65,8.65,0,0,1,2.54-6.54,8.45,8.45,0,0,1,6.06-2.45,6.67,6.67,0,0,1,5.67,3V0.56H112V25.09h-3.7V22.44a6.86,6.86,0,0,1-6,2.91A7.91,7.91,0,0,1,96.49,22.84Zm1.22-6.46a5.51,5.51,0,0,0,1.62,4.11,5.26,5.26,0,0,0,3.8,1.59,4.91,4.91,0,0,0,3.7-1.6,5.74,5.74,0,0,0,1.52-4.11,6,6,0,0,0-1.52-4.2,4.84,4.84,0,0,0-3.68-1.69,5,5,0,0,0-3.8,1.69,5.91,5.91,0,0,0-1.63,4.21h0Z" transform="translate(0 -0.01)" fill="#ff6938"/>
    <path d="M133.71,17.91H119.93a4,4,0,0,0,1.75,3.1,6.81,6.81,0,0,0,8.72-.91l2.12,2.31a9.83,9.83,0,0,1-7.4,2.94,8.81,8.81,0,0,1-6.3-2.46,8.68,8.68,0,0,1-2.59-6.61,8.54,8.54,0,0,1,2.64-6.59,8.88,8.88,0,0,1,6.23-2.45,9,9,0,0,1,6.1,2.16,7.46,7.46,0,0,1,2.51,6v2.51ZM119.93,15H130a4.24,4.24,0,0,0-1.39-3.4,5.07,5.07,0,0,0-3.47-1.2,5.86,5.86,0,0,0-3.65,1.24A4,4,0,0,0,119.93,15Z" transform="translate(0 -0.01)" fill="#ff6938"/>
    <path d="M151.39,10.48V19.4a2.9,2.9,0,0,0,.66,2,2.35,2.35,0,0,0,1.85.74A3.15,3.15,0,0,0,156.15,21l1.52,2.61a6.31,6.31,0,0,1-4.31,1.75,5.55,5.55,0,0,1-4-1.64,5.9,5.9,0,0,1-1.67-4.41V10.48h-2.21v-3h2.21V2h3.7V7.53H156v3h-4.63V10.48Z" transform="translate(0 -0.01)" fill="#ff6938"/>
    <path d="M175.22,22.72a9.63,9.63,0,0,1-13.22,0,8.71,8.71,0,0,1-2.64-6.43A8.72,8.72,0,0,1,162,9.86a9.63,9.63,0,0,1,13.22,0,8.72,8.72,0,0,1,2.64,6.43A8.72,8.72,0,0,1,175.22,22.72Zm-10.59-2.28a5.75,5.75,0,0,0,8,0,5.68,5.68,0,0,0,1.52-4.15,5.68,5.68,0,0,0-1.57-4.15,5.75,5.75,0,0,0-8,0A5.68,5.68,0,0,0,163,16.29a5.67,5.67,0,0,0,1.62,4.15h0Z" transform="translate(0 -0.01)" fill="#ff6938"/>
  </g>
  <g>
    <path d="M25.35,118.16l-8.86,20.13h-16l39-88.48H55.47l39,88.48h-16l-8.86-20.13H25.35Zm38.23-13.8L47.5,67.91,31.42,104.36H63.58Z" transform="translate(0 -0.01)" fill="#fff"/>
    <path d="M105.59,57.53a8.86,8.86,0,1,1,6.33,2.66A8.64,8.64,0,0,1,105.59,57.53Zm13.29,80.76H104.71V71h14.18v67.34h0Z" transform="translate(0 -0.01)" fill="#fff"/>
    <path d="M174.7,84.24q-10.51,0-15.82,6.83t-5.32,18.35v28.86H139.39V71h14.18V84.49a29.35,29.35,0,0,1,9.3-10.38,22.42,22.42,0,0,1,12.47-4.18l0.13,14.3H174.7Z" transform="translate(0 -0.01)" fill="#fff"/>
  </g>
  <g>
    <path d="M19.66,160.14v35.22h-7V160.14H0V153.7H32.3v6.44H19.66Z" transform="translate(0 -0.01)" fill="#fff"/>
    <path d="M55.6,169.91q-5,0-7.45,3.22t-2.5,8.64v13.59H39V163.65h6.68V170A13.82,13.82,0,0,1,50,165.12a10.56,10.56,0,0,1,5.87-2L56,169.86H55.6v0Z" transform="translate(0 -0.01)" fill="#fff"/>
    <path d="M88,195.36H81.94v-4.23a13,13,0,0,1-10.55,4.71A12.09,12.09,0,0,1,63.15,193a9.38,9.38,0,0,1-3.25-7.48,7.87,7.87,0,0,1,3.46-7q3.46-2.33,9.36-2.32h8.64V175q0-6.32-7-6.32a16.49,16.49,0,0,0-9.21,3.25l-3-4.17a20.53,20.53,0,0,1,13.11-4.59A14.21,14.21,0,0,1,84.47,166Q88,168.84,88,174.92v20.44Zm-6.68-11.8v-2.68h-7.5q-7.21,0-7.21,4.53A4,4,0,0,0,68.42,189a8.73,8.73,0,0,0,5,1.22A9,9,0,0,0,79,188.39a5.72,5.72,0,0,0,2.36-4.83h0Z" transform="translate(0 -0.01)" fill="#fff"/>
    <path d="M105.36,195.36L92.61,163.65h6.91l9.65,24,9.65-24h6.91L113,195.36h-7.62Z" transform="translate(0 -0.01)" fill="#fff"/>
    <path d="M160.55,182.43H135.7a7.22,7.22,0,0,0,3.16,5.57,11.08,11.08,0,0,0,6.68,2.12q6,0,9.06-3.75l3.81,4.17q-5.13,5.31-13.35,5.3a15.89,15.89,0,0,1-11.35-4.44Q129,187,129,179.48t4.77-11.89A16,16,0,0,1,145,163.18a16.27,16.27,0,0,1,11,3.9q4.53,3.9,4.53,10.76v4.59h0Zm-24.85-5.24h18.18a7.64,7.64,0,0,0-2.5-6.14,9.15,9.15,0,0,0-6.17-2.15,10.56,10.56,0,0,0-6.59,2.24,7.21,7.21,0,0,0-2.92,6h0Z" transform="translate(0 -0.01)" fill="#fff"/>
    <path d="M174.55,195.36h-6.68V151.14h6.68v44.22Z" transform="translate(0 -0.01)" fill="#fff"/>
  </g>
</svg>
