<svg id="Layer_1" data-name="Layer 1" xmlns="http://www.w3.org/2000/svg" x="0px" y="0px" width="492.86px" height="124.79px" viewBox="0 0 492.86 124.79">
  <title>air-travel-title-medium</title>
  <g>
    <path d="M61.21,124.26l-6.75-15.69H24l-6.75,15.69H0L31.38,51.62H47.07l31.38,72.64H61.21Zm-21.93-51-9.15,21.1H48.32Z" transform="translate(0 -0.3)" fill="#fff"/>
    <path d="M86.61,61.23a9.29,9.29,0,1,1,6.5,2.65A8.83,8.83,0,0,1,86.61,61.23Zm14.29,63H85.31V68.35H100.9v55.91Z" transform="translate(0 -0.3)" fill="#fff"/>
    <path d="M145.06,82.07q-7,0-10.39,4.94t-3.43,13v24.21H115.65V68.35h15.59v7.38a26.16,26.16,0,0,1,7.53-5.82,20.49,20.49,0,0,1,9.2-2.49l0.1,14.65h-3Z" transform="translate(0 -0.3)" fill="#fff"/>
    <path d="M218.11,65.65v58.61H201.9V65.65H181.33v-14h57.36v14H218.11Z" transform="translate(0 -0.3)" fill="#fff"/>
    <path d="M278.38,82.07q-7,0-10.39,4.94t-3.43,13v24.21H249V68.35h15.59v7.38a26.17,26.17,0,0,1,7.54-5.82,20.48,20.48,0,0,1,9.2-2.49l0.1,14.65h-3Z" transform="translate(0 -0.3)" fill="#fff"/>
    <path d="M338.65,124.26H324V117.5q-6,7.59-14.91,7.59a22.17,22.17,0,0,1-14.91-5.14q-6-5.14-6-13.72t6.23-12.83q6.24-4.26,17-4.26h11.64V88.82q0-8.94-9.46-8.94A25.57,25.57,0,0,0,305,81.5a27.87,27.87,0,0,0-7.64,4l-7-10.08a41.7,41.7,0,0,1,25.15-8q10.18,0,16.63,5.09t6.44,16.11v35.64ZM323,103v-2.7h-9.77q-9.35,0-9.35,5.82a5.35,5.35,0,0,0,2.23,4.62,10.8,10.8,0,0,0,6.39,1.61,11.36,11.36,0,0,0,7.33-2.55A8.28,8.28,0,0,0,323,103Z" transform="translate(0 -0.3)" fill="#fff"/>
    <path d="M367.23,124.26l-22.14-56h16.21l13.93,35.23,13.92-35.23h16.21l-22.14,56h-16Z" transform="translate(0 -0.3)" fill="#fff"/>
    <path d="M461.48,116.15a31.26,31.26,0,0,1-22.19,8.94q-12.73,0-21-7.85t-8.31-21q0-13.2,8.47-21a28.56,28.56,0,0,1,20-7.79,28.93,28.93,0,0,1,19.59,7q8.05,7,8.05,19.12v8.31H425.32a11.1,11.1,0,0,0,4.78,7.48,15.3,15.3,0,0,0,9.15,2.91,17.93,17.93,0,0,0,13.51-5.51ZM446.52,83a11.81,11.81,0,0,0-7.85-2.7,14,14,0,0,0-8.47,2.81,10.73,10.73,0,0,0-4.47,7.59h24.52A11.07,11.07,0,0,0,446.52,83Z" transform="translate(0 -0.3)" fill="#fff"/>
    <path d="M492.86,124.26H477.28V47.15h15.59v77.11Z" transform="translate(0 -0.3)" fill="#fff"/>
  </g>
  <g>
    <path d="M12.06,25.75l-3,6.74H3.75L16.81,2.85h5.34L35.22,32.5H29.87l-3-6.74H12.06Zm12.81-4.62L19.48,8.91,14.09,21.13H24.87Z" transform="translate(0 -0.3)" fill="#ff6938"/>
    <path d="M71.48,18.07h5V28.21q-4.2,4.62-12,4.62a15.14,15.14,0,0,1-11-4.33A14.64,14.64,0,0,1,49,17.57a14.78,14.78,0,0,1,4.52-11A15.06,15.06,0,0,1,64.48,2.13,15.54,15.54,0,0,1,75.13,5.86L72.46,9.68A10.44,10.44,0,0,0,69,7.62,13.22,13.22,0,0,0,64.86,7,10.53,10.53,0,0,0,57.31,10a10.05,10.05,0,0,0-3.05,7.63A10,10,0,0,0,64.42,28a12.82,12.82,0,0,0,7.06-1.82V18.07h0Z" transform="translate(0 -0.3)" fill="#ff6938"/>
    <path d="M98.16,22.15V9.93h4.75V32.5H98.16V28.38A8.86,8.86,0,0,1,84.48,30.5q-2.35-2.33-2.35-6.74V9.93h4.75V22.32q0,6.23,5.17,6.23a6.22,6.22,0,0,0,4.29-1.63A6.08,6.08,0,0,0,98.16,22.15Z" transform="translate(0 -0.3)" fill="#ff6938"/>
    <path d="M110.08,5.44a2.89,2.89,0,0,1-.89-2.12,2.9,2.9,0,0,1,.89-2.12,3,3,0,0,1,4.24,0,2.9,2.9,0,0,1,.89,2.12,2.89,2.89,0,0,1-.89,2.12A3,3,0,0,1,110.08,5.44Zm4.45,27.06h-4.75V9.93h4.75V32.5Z" transform="translate(0 -0.3)" fill="#ff6938"/>
    <path d="M123.14,29.61A11.55,11.55,0,0,1,120,21.13a11.1,11.1,0,0,1,3.27-8.4A10.84,10.84,0,0,1,131,9.59a8.56,8.56,0,0,1,7.27,3.82V1H143V32.5h-4.75V29.1a8.8,8.8,0,0,1-7.68,3.73A10.15,10.15,0,0,1,123.14,29.61Zm1.57-8.29a7.06,7.06,0,0,0,2.08,5.28,6.74,6.74,0,0,0,4.88,2,6.3,6.3,0,0,0,4.75-2.06,7.37,7.37,0,0,0,2-5.28,7.75,7.75,0,0,0-2-5.39,6.21,6.21,0,0,0-4.79-2.16,6.46,6.46,0,0,0-4.88,2.16A7.58,7.58,0,0,0,124.71,21.32Z" transform="translate(0 -0.3)" fill="#ff6938"/>
    <path d="M170.9,23.29H153.21a5.14,5.14,0,0,0,2.25,4,8.74,8.74,0,0,0,11.2-1.17l2.71,3a12.61,12.61,0,0,1-9.5,3.78,11.31,11.31,0,0,1-8.08-3.16,11.14,11.14,0,0,1-3.33-8.48,11,11,0,0,1,3.39-8.46,11.39,11.39,0,0,1,8-3.14,11.58,11.58,0,0,1,7.82,2.78A9.57,9.57,0,0,1,170.9,20v3.27h0Zm-17.69-3.73h12.94a5.44,5.44,0,0,0-1.78-4.37A6.51,6.51,0,0,0,160,13.67a7.5,7.5,0,0,0-4.69,1.59A5.13,5.13,0,0,0,153.21,19.56Z" transform="translate(0 -0.3)" fill="#ff6938"/>
    <path d="M193.59,13.75V25.2a3.71,3.71,0,0,0,.85,2.56,3,3,0,0,0,2.38,1,4,4,0,0,0,2.93-1.48l2,3.35a8.1,8.1,0,0,1-5.54,2.25,7.12,7.12,0,0,1-5.18-2.1,7.56,7.56,0,0,1-2.14-5.66V13.75H186V9.93h2.84V2.85h4.75V9.93h5.94v3.82h-5.94Z" transform="translate(0 -0.3)" fill="#ff6938"/>
    <path d="M224.17,29.46a12.36,12.36,0,0,1-17,0,11.18,11.18,0,0,1-3.39-8.25A11.18,11.18,0,0,1,207.2,13a12.36,12.36,0,0,1,17,0,11.19,11.19,0,0,1,3.39,8.25A11.18,11.18,0,0,1,224.17,29.46Zm-13.59-2.93a7.38,7.38,0,0,0,10.22,0,7.29,7.29,0,0,0,2-5.32,7.29,7.29,0,0,0-2-5.32,7.38,7.38,0,0,0-10.22,0,7.28,7.28,0,0,0-2,5.32A7.29,7.29,0,0,0,210.58,26.54Z" transform="translate(0 -0.3)" fill="#ff6938"/>
  </g>
</svg>
