<svg id="Layer_1" data-name="Layer 1" xmlns="http://www.w3.org/2000/svg" xmlns:xlink="http://www.w3.org/1999/xlink" width="1816px" height="33.85px" viewBox="0 0 1816 33.85" x="0px" y="0px">
  <defs>
    <linearGradient id="linear-gradient" x1="238" y1="18.09" x2="1816" y2="18.09" gradientTransform="matrix(1, 0, 0, -1, 0, 35.04)" gradientUnits="userSpaceOnUse">
      <stop offset="0" stop-color="#feda0e"/>
      <stop offset="1" stop-color="#feda0e" stop-opacity="0"/>
    </linearGradient>
  </defs>
  <title>desert-title-small</title>
  <g>
    <path d="M103,33.4l-2.87-6.67H87.18L84.3,33.4H77L90.31,2.56H97L110.33,33.4H103ZM93.67,11.75l-3.89,9h7.73Z" transform="translate(0 0.04)" fill="#5a5e63"/>
    <path d="M120.67,8.31V9.9h5.74v4.77h-5.74V33.4H114V14.67h-2.78V9.9H114V8.4A8,8,0,0,1,121.54,0q0.35,0,.7,0a9.2,9.2,0,0,1,6.38,2.65l-2.39,4.46A4.24,4.24,0,0,0,123,5.4a2.17,2.17,0,0,0-1.68.73A3.09,3.09,0,0,0,120.67,8.31Z" transform="translate(0 0.04)" fill="#5a5e63"/>
    <path d="M143,15.51a5,5,0,0,0-4.42,2.1,9.54,9.54,0,0,0-1.46,5.55V33.4h-6.63V9.68h6.63v3.14a11.14,11.14,0,0,1,3.2-2.47,8.71,8.71,0,0,1,3.91-1.06v6.23H143Z" transform="translate(0 0.04)" fill="#5a5e63"/>
    <path d="M149.23,6.65a4,4,0,0,1,0-5.52A3.88,3.88,0,1,1,149.23,6.65Zm6.08,26.75h-6.63V9.68h6.63V33.4Z" transform="translate(0 0.04)" fill="#5a5e63"/>
    <path d="M173,27.92q3.31,0,6-3.31L182.93,29q-4.6,4.77-9.94,4.77a12.88,12.88,0,0,1-9-3.38,11.42,11.42,0,0,1-3.69-8.84A11.49,11.49,0,0,1,164,12.7a12.67,12.67,0,0,1,8.86-3.42A13.8,13.8,0,0,1,178,10.34a13.13,13.13,0,0,1,4.62,3.14L179.17,18a8.23,8.23,0,0,0-6.1-2.87,6.45,6.45,0,0,0-4.48,1.7,6.05,6.05,0,0,0-1.88,4.73,6,6,0,0,0,1.88,4.71A6.38,6.38,0,0,0,173,27.92Z" transform="translate(0 0.04)" fill="#5a5e63"/>
    <path d="M207.49,33.4h-6.23V30.57a7.81,7.81,0,0,1-6.34,3.23,9.43,9.43,0,0,1-6.34-2.19A7.28,7.28,0,0,1,186,25.78a6.17,6.17,0,0,1,2.65-5.46,12.68,12.68,0,0,1,7.25-1.81h4.95V18.4q0-3.8-4-3.8a10.88,10.88,0,0,0-3.65.68,11.84,11.84,0,0,0-3.25,1.7l-3-4.29a17.73,17.73,0,0,1,10.69-3.4,11.06,11.06,0,0,1,7.11,2.11q2.74,2.17,2.74,6.85V33.4Zm-6.68-9V23.24h-4.15q-4,0-4,2.47a2.28,2.28,0,0,0,1,2,4.59,4.59,0,0,0,2.72.69,4.83,4.83,0,0,0,3.11-1.08A3.52,3.52,0,0,0,200.81,24.4Z" transform="translate(0 0.04)" fill="#5a5e63"/>
  </g>
  <rect y="8.64" width="52.69" height="16.61" fill="#feda0e"/>
  <rect x="238" y="8.64" width="1578" height="16.61" fill="url(#linear-gradient)"/>
</svg>
