<svg id="Layer_1" data-name="Layer 1" xmlns="http://www.w3.org/2000/svg" xmlns:xlink="http://www.w3.org/1999/xlink" width="1920px" height="62.02px" viewBox="0 0 1920 62.02" x="0px" y="0px">
  <defs>
    <linearGradient id="linear-gradient" x1="342" y1="30.51" x2="1920" y2="30.51" gradientTransform="matrix(1, 0, 0, -1, 0, 63.03)" gradientUnits="userSpaceOnUse">
      <stop offset="0" stop-color="#feda0e"/>
      <stop offset="1" stop-color="#feda0e" stop-opacity="0"/>
    </linearGradient>
  </defs>
  <title>desert-title</title>
  <g>
    <path d="M124.68,61.31l-5.27-12.23H95.68L90.42,61.31H77L101.43,4.7h12.23l24.46,56.62H124.68ZM107.59,21.54L100.46,38h14.17Z" transform="translate(0 0.03)" fill="#595d62"/>
    <path d="M157.08,15.23v2.92h10.53V26.9H157.08V61.31H144.85V26.89h-5.1V18.14h5.1V15.47q0-7.13,4.33-11.3A14.92,14.92,0,0,1,160,0a16.87,16.87,0,0,1,11.7,4.86L167.33,13a7.77,7.77,0,0,0-6-3,4,4,0,0,0-3.08,1.34A5.66,5.66,0,0,0,157.08,15.23Z" transform="translate(0 0.03)" fill="#595d62"/>
    <path d="M198.06,28.43q-5.43,0-8.1,3.85t-2.67,10.17V61.31H175.14V17.74h12.15v5.75A20.42,20.42,0,0,1,193.16,19a16,16,0,0,1,7.17-2l0.08,11.42h-2.35v0Z" transform="translate(0 0.03)" fill="#595d62"/>
    <path d="M209.45,12.19a6.88,6.88,0,0,1-2.07-5.06,6.89,6.89,0,0,1,2.07-5.06,7.24,7.24,0,0,1,10.13,0,6.89,6.89,0,0,1,2.07,5.06,6.88,6.88,0,0,1-2.07,5.06A7.24,7.24,0,0,1,209.45,12.19Zm11.14,49.13H208.43V17.74h12.15V61.31h0Z" transform="translate(0 0.03)" fill="#595d62"/>
    <path d="M253,51.19q6.08,0,10.94-6.08l7.21,8.1Q262.7,62,252.9,62a23.62,23.62,0,0,1-16.56-6.2q-6.76-6.2-6.76-16.2t6.84-16.28A23.22,23.22,0,0,1,252.66,17a25.31,25.31,0,0,1,9.52,2,24.08,24.08,0,0,1,8.46,5.75L264.32,33a14.38,14.38,0,0,0-5.14-3.89,14.53,14.53,0,0,0-6-1.38A11.83,11.83,0,0,0,245,30.83q-3.44,3.12-3.44,8.67T245,48.13A11.7,11.7,0,0,0,253,51.19Z" transform="translate(0 0.03)" fill="#595d62"/>
    <path d="M316.24,61.31H304.82V56Q300.12,62,293.2,62a17.28,17.28,0,0,1-11.62-4,13.35,13.35,0,0,1-4.7-10.69q0-6.68,4.86-10T295,34h9.07V33.69q0-7-7.37-7A19.94,19.94,0,0,0,290,28a21.71,21.71,0,0,0-6,3.12l-5.43-7.86A32.5,32.5,0,0,1,298.26,17q7.94,0,13,4t5,12.55V61.31h0ZM304,44.71V42.6h-7.6q-7.29,0-7.29,4.54a4.17,4.17,0,0,0,1.74,3.6,8.42,8.42,0,0,0,5,1.26,8.86,8.86,0,0,0,5.71-2A6.46,6.46,0,0,0,304,44.71Z" transform="translate(0 0.03)" fill="#595d62"/>
  </g>
  <rect y="15.27" width="52.69" height="34.49" fill="#feda0e"/>
  <rect x="342" y="15.27" width="1578" height="34.49" fill="url(#linear-gradient)"/>
</svg>
